{"title":"Mob.Rules.2010.DvDRip.XviD.Ac3.Feel-Free","uid":6409384,"size":973734836,"categoryP":"video","categoryS":"movies","magnet":"?xt=urn:btih:7d8cf902d436df047ea0f0fb02d11dad880e0718&amp;dn=Mob.Rules.2010.DvDRip.XviD.Ac3.Feel-Free&amp;tr=udp%3A%2F%2Ftracker.openbittorrent.com%3A80&amp;tr=udp%3A%2F%2Fopen.demonii.com%3A1337&amp;tr=udp%3A%2F%2Ftracker.coppersurfer.tk%3A6969&amp;tr=udp%3A%2F%2Fexodus.desync.com%3A6969","seeders":0,"leechers":1,"uploader":"hiest","files":-1,"time":1305920500,"description":" Full Credits to (Pitic):\n\n ######## ######## ######## ##          ######## ########  ######## ######\n ##       ##       ##       ##          ##       ##     ## ##       ##       \n ##       ##       ##       ##          ##       ##     ## ##       ##       \n ######   ######   ######   ##          ######   ########  ######   ######   \n ##       ##       ##       ##          ##       ##   ##   ##       ##       \n ##       ##       ##       ##          ##       ##    ##  ##       ##       \n ##       ######## ######## ########    ##       ##     ## ######## ###### \n\n Genre:Action \n Language:English\n IMDb:\n &lt;a href=&quot; http://www.imdb.com/title/tt1217301/&quot; rel=&quot;nofollow&quot; target=&quot;_NEW&quot;&gt; http://www.imdb.com/title/tt1217301/&lt;/a&gt;\n Source:DVD\n Subtitles:Romana\n\n Format : AVI\n Format/Info : Audio Video Interleave\n File size : 927 MiB\n Duration : 1h 36mn\n Overall bit rate : 1 337 Kbps\n\n Video\n ID : 0\n Format : MPEG-4 Visual\n Format profile : Advanced Simple@L5\n Format settings, BVOP : Yes\n Format settings, QPel : No\n Format settings, GMC : No warppoints\n Format settings, Matrix : Default (H.263)\n Codec ID : XVID\n Codec ID/Hint : XviD\n Duration : 1h 36mn\n Bit rate : 877 Kbps\n Width : 640 pixels\n Height : 352 pixels\n Display aspect ratio : 16:9\n Frame rate : 29.970 fps\n Color space : YUV\n Chroma subsampling : 4:2:0\n Bit depth : 8 bits\n Scan type : Progressive\n Bits/(Pixel*Frame) : 0.130\n Stream size : 608 MiB (66%)\n Writing library : XviD 1.2.1 (UTC 2008-12-04)\n\n Audio\n ID : 1\n Format : AC-3\n Format/Info : Audio Coding 3\n Mode extension : CM (complete main)\n Codec ID : 2000\n Duration : 1h 36mn\n Bit rate mode : Constant\n Bit rate : 448 Kbps\n Channel(s) : 6 channels\n Channel positions : Front: L C R, Side: L R, LFE\n Sampling rate : 48.0 KHz\n Bit depth : 16 bits\n Stream size : 311 MiB (34%)\n Alignment : Aligned on interleaves\n Interleave, duration : 33 ms (1.00 video frame)\n Interleave, preload duration : 512 ms\n\n\n Plot:\n Time is running out for two elite criminals as they seek out revenge to get the money they are owed after a heist gone wrong...\n\n\n Full Credits to (Pitic):\n\n ######## ######## ######## ##          ######## ########  ######## ######\n ##       ##       ##       ##          ##       ##     ## ##       ##       \n ##       ##       ##       ##          ##       ##     ## ##       ##       \n ######   ######   ######   ##          ######   ########  ######   ######   \n ##       ##       ##       ##          ##       ##   ##   ##       ##       \n ##       ##       ##       ##          ##       ##    ##  ##       ##       \n ##       ######## ######## ########    ##       ##     ## ######## ###### ","torrent":{"xt":"urn:btih:7d8cf902d436df047ea0f0fb02d11dad880e0718","amp;dn":"Mob.Rules.2010.DvDRip.XviD.Ac3.Feel-Free","amp;tr":["udp%3A%2F%2Ftracker.openbittorrent.com%3A80","udp%3A%2F%2Fopen.demonii.com%3A1337","udp%3A%2F%2Ftracker.coppersurfer.tk%3A6969","udp%3A%2F%2Fexodus.desync.com%3A6969"],"infoHash":"7d8cf902d436df047ea0f0fb02d11dad880e0718","infoHashBuffer":{"type":"Buffer","data":[125,140,249,2,212,54,223,4,126,160,240,251,2,209,29,173,136,14,7,24]},"announce":[],"urlList":[]}}